<?xml version="1.0" standalone="no"?>
<!DOCTYPE svg PUBLIC "-//W3C//DTD SVG 20010904//EN"
 "http://www.w3.org/TR/2001/REC-SVG-20010904/DTD/svg10.dtd">
<svg version="1.0" xmlns="http://www.w3.org/2000/svg"
 width="786.000000pt" height="778.000000pt" viewBox="0 0 786.000000 778.000000">

<g transform="translate(0.000000,778.000000) scale(0.100000,-0.100000)"
fill="#000000" stroke="none">
<path d="M0 3890 l0 -3890 3930 0 3930 0 0 3890 0 3890 -3930 0 -3930 0 0
-3890z m2968 2210 c212 -24 406 -98 583 -222 78 -54 159 -123 159 -134 0 -14
-143 -205 -160 -214 -44 -23 -84 -11 -191 57 -175 111 -288 152 -491 174 -289
32 -605 -66 -799 -248 -106 -99 -237 -311 -279 -451 -54 -180 -74 -408 -50
-589 38 -282 134 -496 299 -663 183 -184 404 -270 696 -270 287 1 451 58 680
240 38 31 59 40 88 40 34 0 45 -8 122 -87 47 -49 85 -95 85 -104 0 -23 -143
-157 -231 -216 -196 -132 -379 -192 -658 -214 -441 -34 -813 90 -1087 365
-279 279 -404 618 -404 1090 0 225 15 338 72 511 176 538 595 873 1173 939 68
7 316 5 393 -4z m2620 -650 c271 -24 519 -110 731 -252 93 -63 171 -135 170
-157 0 -9 -30 -74 -68 -146 -73 -141 -105 -175 -168 -175 -41 0 -65 12 -186
91 -248 163 -450 220 -722 203 -386 -24 -640 -247 -662 -582 -10 -144 30 -264
120 -359 132 -140 270 -212 656 -339 91 -30 175 -59 186 -63 11 -5 45 -18 75
-29 138 -50 279 -108 320 -132 25 -14 58 -32 75 -40 16 -8 37 -20 45 -27 8 -7
44 -33 80 -60 150 -110 271 -283 311 -443 89 -353 18 -748 -187 -1037 -100
-140 -296 -305 -432 -363 -12 -5 -42 -18 -66 -29 -95 -44 -219 -78 -367 -101
-85 -13 -419 -13 -495 0 -84 15 -155 30 -184 40 -14 4 -45 13 -70 20 -52 14
-96 28 -127 41 -13 5 -33 13 -45 18 -148 57 -335 173 -448 277 -25 23 -59 54
-77 68 -38 32 -39 28 40 161 76 128 101 162 137 180 67 35 114 17 269 -98 117
-87 150 -107 261 -162 145 -72 203 -92 304 -106 39 -5 91 -12 116 -15 64 -9
291 14 379 37 236 63 431 238 490 439 7 25 17 55 22 67 15 40 22 244 10 308
-16 86 -61 171 -128 241 -126 133 -234 185 -684 335 -184 61 -368 125 -409
142 -160 66 -342 187 -435 288 -68 74 -175 252 -175 292 0 7 -4 17 -8 22 -5 6
-14 35 -20 65 -6 30 -15 79 -21 108 -14 68 -14 279 -1 340 6 26 15 70 21 97
23 110 97 273 167 368 254 344 685 512 1200 467z"/>
</g>
</svg>
